<svg width="81" height="50" viewBox="0 0 81 50" fill="none" xmlns="http://www.w3.org/2000/svg">
<path d="M80 25C80 31.4283 75.7755 37.4052 68.6126 41.8267C61.4654 46.2386 51.5286 49 40.5 49C29.4714 49 19.5346 46.2386 12.3874 41.8267C5.2245 37.4052 1 31.4283 1 25C1 18.5717 5.2245 12.5948 12.3874 8.17327C19.5346 3.76142 29.4714 1 40.5 1C51.5286 1 61.4654 3.76142 68.6126 8.17327C75.7755 12.5948 80 18.5717 80 25Z" stroke="black" stroke-width="2"/>
<path d="M14.3174 28.9102C14.4443 30.2871 14.8496 31.2783 15.5332 31.8838C16.2168 32.4795 17.208 32.7773 18.5068 32.7773C19.9424 32.7773 21.0068 32.3037 21.7002 31.3564C22.3936 30.3994 22.7939 28.9883 22.9014 27.123H16.1631V23.5635H22.8867C22.7695 21.6592 22.3398 20.248 21.5977 19.3301C20.8652 18.4023 19.8154 17.9385 18.4482 17.9385C17.1201 17.9385 16.124 18.2559 15.46 18.8906C14.7959 19.5156 14.4102 20.5264 14.3027 21.9229H9.9082C10.123 19.5889 10.9727 17.748 12.457 16.4004C13.9512 15.0527 15.9482 14.3789 18.4482 14.3789C20.2256 14.3789 21.7832 14.7988 23.1211 15.6387C24.4688 16.4688 25.5039 17.665 26.2266 19.2275C26.9492 20.7803 27.3105 22.5918 27.3105 24.6621V26.0537C27.3105 29.1982 26.5244 31.6934 24.9521 33.5391C23.3896 35.375 21.2412 36.293 18.5068 36.293C15.9873 36.293 13.9658 35.6289 12.4424 34.3008C10.9287 32.9629 10.0889 31.166 9.92285 28.9102H14.3174Z" fill="black"/>
<path d="M35.1082 14.6719L40.5867 30.1406L46.0359 14.6719H51.8074V36H47.3982V30.1699L47.8377 20.1064L42.0809 36H39.0633L33.3211 20.1211L33.7605 30.1699V36H29.366V14.6719H35.1082Z" fill="black"/>
<path d="M71.3385 28.8955C71.1725 31.1904 70.3229 32.9971 68.7896 34.3154C67.2662 35.6338 65.2545 36.293 62.7545 36.293C60.0201 36.293 57.8668 35.375 56.2945 33.5391C54.732 31.6934 53.9508 29.1641 53.9508 25.9512V24.6475C53.9508 22.5967 54.3121 20.79 55.0348 19.2275C55.7574 17.665 56.7877 16.4688 58.1256 15.6387C59.4732 14.7988 61.0357 14.3789 62.8131 14.3789C65.274 14.3789 67.2564 15.0381 68.7604 16.3564C70.2643 17.6748 71.1334 19.5254 71.3678 21.9082H66.9732C66.8658 20.5312 66.4801 19.5352 65.816 18.9199C65.1617 18.2949 64.1607 17.9824 62.8131 17.9824C61.3482 17.9824 60.2496 18.5098 59.5172 19.5645C58.7945 20.6094 58.4234 22.2354 58.4039 24.4424V26.0537C58.4039 28.3584 58.7506 30.043 59.4439 31.1074C60.1471 32.1719 61.2506 32.7041 62.7545 32.7041C64.1119 32.7041 65.1227 32.3965 65.7867 31.7812C66.4605 31.1562 66.8463 30.1943 66.9439 28.8955H71.3385Z" fill="black"/>
</svg>
