<svg width="151" height="64" viewBox="0 0 151 64" fill="none" xmlns="http://www.w3.org/2000/svg">
<circle cx="39.5" cy="27.5" r="27.5" fill="#9AD5D9"/>
<path d="M62.9677 25.8065H58.1161C57.4573 23.0161 56.3512 20.3507 54.8408 17.9138L58.273 14.4815C58.676 14.0785 58.676 13.425 58.273 13.0219L50.9781 5.72284C50.575 5.31987 49.9215 5.31987 49.5185 5.72284L46.0852 9.1551C43.6485 7.64581 40.9835 6.54103 38.1935 5.88387V1.03226C38.1935 0.462194 37.7314 0 37.1613 0H26.8387C26.2686 0 25.8065 0.462194 25.8065 1.03226V5.88387C23.0163 6.54232 20.3512 7.64839 17.9148 9.15923L14.4815 5.72284C14.0785 5.31987 13.425 5.31987 13.0219 5.72284L5.72284 13.0219C5.31987 13.425 5.31987 14.0785 5.72284 14.4815L9.1551 17.9138C7.64606 20.351 6.54142 23.0164 5.88387 25.8065H1.03226C0.462194 25.8065 0 26.2686 0 26.8387V37.1613C0 37.7314 0.462194 38.1935 1.03226 38.1935H5.88387C6.54271 40.9839 7.64877 43.6493 9.15923 46.0862L5.72284 49.5185C5.31987 49.9215 5.31987 50.575 5.72284 50.9781L13.0219 58.2772C13.4315 58.6644 14.072 58.6644 14.4815 58.2772L17.9138 54.8449C20.351 56.3539 23.0164 57.4586 25.8065 58.1161V62.9677C25.8065 63.5378 26.2686 64 26.8387 64H37.1613C37.7314 64 38.1935 63.5378 38.1935 62.9677V58.1161C40.9839 57.4573 43.6493 56.3512 46.0862 54.8408L49.5185 58.273C49.9215 58.676 50.575 58.676 50.9781 58.273L58.2772 50.9739C58.6801 50.5708 58.6801 49.9174 58.2772 49.5143L54.8449 46.0821C56.3535 43.6462 57.4582 40.9822 58.1161 38.1935H62.9677C63.5378 38.1935 64 37.7314 64 37.1613V26.8387C64 26.2686 63.5378 25.8065 62.9677 25.8065ZM61.9355 36.129H57.2903C56.7997 36.1289 56.3768 36.4742 56.2787 36.9548C55.6481 40.0617 54.4213 43.0169 52.6658 45.6568C52.3942 46.0661 52.4485 46.6101 52.7959 46.9574L56.0867 50.2472L50.2472 56.0867L46.9574 52.7959C46.6101 52.4485 46.0661 52.3942 45.6568 52.6658C43.0169 54.4213 40.0617 55.6481 36.9548 56.2787C36.4742 56.3768 36.1289 56.7997 36.129 57.2903V61.9355H27.871V57.2903C27.8711 56.7997 27.5258 56.3768 27.0452 56.2787C23.9383 55.6481 20.9831 54.4213 18.3432 52.6658C17.9339 52.3942 17.3899 52.4485 17.0426 52.7959L13.7528 56.0867L7.91226 50.2483L11.2031 46.9585C11.5505 46.6111 11.6048 46.0671 11.3332 45.6578C9.57768 43.0179 8.35084 40.0627 7.72026 36.9559C7.62258 36.4751 7.20026 36.1295 6.70968 36.129H2.06452V27.871H6.70968C7.20026 27.8711 7.62323 27.5258 7.72129 27.0452C8.35187 23.9383 9.57871 20.9831 11.3342 18.3432C11.6058 17.9339 11.5514 17.3899 11.2041 17.0426L7.91226 13.7517L13.7517 7.91226L17.0426 11.2031C17.3899 11.5505 17.9339 11.6048 18.3432 11.3332C20.9828 9.57806 23.9377 8.3511 27.0441 7.72026C27.5249 7.62258 27.8705 7.20026 27.871 6.70968V2.06452H36.129V6.70968C36.1289 7.20026 36.4742 7.62323 36.9548 7.72129C40.0613 8.35213 43.0161 9.5791 45.6557 11.3342C46.065 11.6058 46.609 11.5515 46.9564 11.2041L50.2472 7.91329L56.0867 13.7528L52.7959 17.0426C52.4485 17.3899 52.3942 17.9339 52.6658 18.3432C54.4213 20.9831 55.6481 23.9383 56.2787 27.0452C56.3768 27.5258 56.7997 27.8711 57.2903 27.871H61.9355V36.129Z" fill="black"/>
<circle cx="148.5" cy="50.5" r="2.5" fill="#9AD5D9"/>
<path d="M86.0654 48.834C85.9365 50.1992 85.4326 51.2656 84.5537 52.0332C83.6748 52.7949 82.5059 53.1758 81.0469 53.1758C80.0273 53.1758 79.1279 52.9355 78.3486 52.4551C77.5752 51.9688 76.9775 51.2803 76.5557 50.3896C76.1338 49.499 75.9141 48.4648 75.8965 47.2871V46.0918C75.8965 44.8848 76.1104 43.8213 76.5381 42.9014C76.9658 41.9814 77.5781 41.2725 78.375 40.7744C79.1777 40.2764 80.1035 40.0273 81.1523 40.0273C82.5645 40.0273 83.7012 40.4111 84.5625 41.1787C85.4238 41.9463 85.9248 43.0303 86.0654 44.4307H83.8506C83.7451 43.5107 83.4756 42.8486 83.042 42.4443C82.6143 42.0342 81.9844 41.8291 81.1523 41.8291C80.1855 41.8291 79.4414 42.1836 78.9199 42.8926C78.4043 43.5957 78.1406 44.6299 78.1289 45.9951V47.1289C78.1289 48.5117 78.375 49.5664 78.8672 50.293C79.3652 51.0195 80.0918 51.3828 81.0469 51.3828C81.9199 51.3828 82.5762 51.1865 83.0156 50.7939C83.4551 50.4014 83.7334 49.748 83.8506 48.834H86.0654Z" fill="black"/>
<path d="M95.54 47.2871H90.2842V51.2246H96.4277V53H88.0605V40.2031H96.3662V41.9961H90.2842V45.5293H95.54V47.2871Z" fill="black"/>
<path d="M100.462 48.2451V53H98.2383V40.2031H103.134C104.563 40.2031 105.697 40.5752 106.535 41.3193C107.379 42.0635 107.801 43.0479 107.801 44.2725C107.801 45.5264 107.388 46.502 106.562 47.1992C105.741 47.8965 104.59 48.2451 103.107 48.2451H100.462ZM100.462 46.4609H103.134C103.925 46.4609 104.528 46.2764 104.944 45.9072C105.36 45.5322 105.568 44.9932 105.568 44.29C105.568 43.5986 105.357 43.0479 104.936 42.6377C104.514 42.2217 103.934 42.0078 103.195 41.9961H100.462V46.4609Z" fill="black"/>
<path d="M109.752 53V40.2031H114.138C115.585 40.2031 116.687 40.4932 117.442 41.0732C118.198 41.6533 118.576 42.5176 118.576 43.666C118.576 44.252 118.418 44.7793 118.102 45.248C117.785 45.7168 117.322 46.0801 116.713 46.3379C117.404 46.5254 117.938 46.8799 118.312 47.4014C118.693 47.917 118.884 48.5381 118.884 49.2646C118.884 50.4658 118.497 51.3887 117.724 52.0332C116.956 52.6777 115.854 53 114.419 53H109.752ZM111.976 47.2256V51.2246H114.445C115.143 51.2246 115.688 51.0518 116.08 50.7061C116.473 50.3604 116.669 49.8799 116.669 49.2646C116.669 47.9346 115.989 47.2549 114.63 47.2256H111.976ZM111.976 45.5908H114.155C114.847 45.5908 115.386 45.4355 115.772 45.125C116.165 44.8086 116.361 44.3633 116.361 43.7891C116.361 43.1562 116.18 42.6992 115.816 42.418C115.459 42.1367 114.899 41.9961 114.138 41.9961H111.976V45.5908Z" fill="black"/>
<path d="M128.947 40.2031H131.171V53H128.947V43.8857L123.331 53H121.107V40.2031H123.331V49.3262L128.947 40.2031Z" fill="black"/>
<path d="M143.599 48.834C143.47 50.1992 142.966 51.2656 142.087 52.0332C141.208 52.7949 140.039 53.1758 138.58 53.1758C137.561 53.1758 136.661 52.9355 135.882 52.4551C135.108 51.9688 134.511 51.2803 134.089 50.3896C133.667 49.499 133.447 48.4648 133.43 47.2871V46.0918C133.43 44.8848 133.644 43.8213 134.071 42.9014C134.499 41.9814 135.111 41.2725 135.908 40.7744C136.711 40.2764 137.637 40.0273 138.686 40.0273C140.098 40.0273 141.234 40.4111 142.096 41.1787C142.957 41.9463 143.458 43.0303 143.599 44.4307H141.384C141.278 43.5107 141.009 42.8486 140.575 42.4443C140.147 42.0342 139.518 41.8291 138.686 41.8291C137.719 41.8291 136.975 42.1836 136.453 42.8926C135.938 43.5957 135.674 44.6299 135.662 45.9951V47.1289C135.662 48.5117 135.908 49.5664 136.4 50.293C136.898 51.0195 137.625 51.3828 138.58 51.3828C139.453 51.3828 140.109 51.1865 140.549 50.7939C140.988 50.4014 141.267 49.748 141.384 48.834H143.599Z" fill="black"/>
<path d="M80.5762 21.7812L83.75 31.6738L86.9141 21.7812H91.4258V36H87.9883V32.6797L88.3203 25.8828L84.8828 36H82.6172L79.1699 25.873L79.502 32.6797V36H76.0742V21.7812H80.5762Z" fill="#9AD5D9"/>
<path d="M105.654 29.1836C105.654 30.5703 105.397 31.7975 104.883 32.8652C104.368 33.9329 103.636 34.7565 102.686 35.3359C101.742 35.9089 100.664 36.1953 99.4531 36.1953C98.2422 36.1953 97.168 35.9186 96.2305 35.3652C95.293 34.8053 94.5605 34.0078 94.0332 32.9727C93.5124 31.9375 93.2389 30.7493 93.2129 29.4082V28.6074C93.2129 27.2142 93.4668 25.987 93.9746 24.9258C94.4889 23.8581 95.2214 23.0345 96.1719 22.4551C97.1289 21.8757 98.2161 21.5859 99.4336 21.5859C100.638 21.5859 101.712 21.8724 102.656 22.4453C103.6 23.0182 104.333 23.8353 104.854 24.8965C105.381 25.9512 105.648 27.1621 105.654 28.5293V29.1836ZM102.168 28.5879C102.168 27.1751 101.93 26.1042 101.455 25.375C100.986 24.6393 100.312 24.2715 99.4336 24.2715C97.7148 24.2715 96.8066 25.5605 96.709 28.1387L96.6992 29.1836C96.6992 30.5768 96.9303 31.6478 97.3926 32.3965C97.8548 33.1452 98.5417 33.5195 99.4531 33.5195C100.319 33.5195 100.986 33.1517 101.455 32.416C101.924 31.6803 102.161 30.6224 102.168 29.2422V28.5879Z" fill="#9AD5D9"/>
<path d="M117.744 24.4277H113.477V36H110.049V24.4277H105.859V21.7812H117.744V24.4277Z" fill="#9AD5D9"/>
<path d="M130.967 29.1836C130.967 30.5703 130.71 31.7975 130.195 32.8652C129.681 33.9329 128.949 34.7565 127.998 35.3359C127.054 35.9089 125.977 36.1953 124.766 36.1953C123.555 36.1953 122.48 35.9186 121.543 35.3652C120.605 34.8053 119.873 34.0078 119.346 32.9727C118.825 31.9375 118.551 30.7493 118.525 29.4082V28.6074C118.525 27.2142 118.779 25.987 119.287 24.9258C119.801 23.8581 120.534 23.0345 121.484 22.4551C122.441 21.8757 123.529 21.5859 124.746 21.5859C125.951 21.5859 127.025 21.8724 127.969 22.4453C128.913 23.0182 129.645 23.8353 130.166 24.8965C130.693 25.9512 130.96 27.1621 130.967 28.5293V29.1836ZM127.48 28.5879C127.48 27.1751 127.243 26.1042 126.768 25.375C126.299 24.6393 125.625 24.2715 124.746 24.2715C123.027 24.2715 122.119 25.5605 122.021 28.1387L122.012 29.1836C122.012 30.5768 122.243 31.6478 122.705 32.3965C123.167 33.1452 123.854 33.5195 124.766 33.5195C125.632 33.5195 126.299 33.1517 126.768 32.416C127.236 31.6803 127.474 30.6224 127.48 29.2422V28.5879Z" fill="#9AD5D9"/>
<path d="M136.162 31.1758V36H132.734V21.7812H138.408C139.495 21.7812 140.456 21.9831 141.289 22.3867C142.129 22.7839 142.777 23.3535 143.232 24.0957C143.695 24.8314 143.926 25.668 143.926 26.6055C143.926 27.9922 143.428 29.1022 142.432 29.9355C141.442 30.7624 140.081 31.1758 138.35 31.1758H136.162ZM136.162 28.5293H138.408C139.072 28.5293 139.577 28.3633 139.922 28.0312C140.273 27.6992 140.449 27.2305 140.449 26.625C140.449 25.9609 140.27 25.4303 139.912 25.0332C139.554 24.6361 139.066 24.4342 138.447 24.4277H136.162V28.5293Z" fill="#9AD5D9"/>
<path d="M78.1641 13.8428C78.2812 14.7686 78.5596 15.4277 78.999 15.8203C79.4443 16.2129 80.0977 16.4092 80.959 16.4092C81.873 16.4092 82.5791 16.0752 83.0771 15.4072C83.5811 14.7393 83.8506 13.7754 83.8857 12.5156H79.3682V10.7227H83.8857C83.8389 9.45703 83.5547 8.49023 83.0332 7.82227C82.5176 7.1543 81.791 6.82031 80.8535 6.82031C80.0332 6.82031 79.4033 7.02539 78.9639 7.43555C78.5303 7.8457 78.2607 8.51367 78.1553 9.43945H75.9404C76.0811 8.04492 76.5791 6.96094 77.4346 6.1875C78.2959 5.41406 79.4355 5.02734 80.8535 5.02734C81.9023 5.02734 82.8252 5.27344 83.6221 5.76562C84.4189 6.25781 85.0312 6.96094 85.459 7.875C85.8926 8.78906 86.1123 9.84668 86.1182 11.0479V12.1289C86.1182 13.3418 85.9072 14.4082 85.4854 15.3281C85.0693 16.2422 84.4688 16.9453 83.6836 17.4375C82.8984 17.9297 81.9902 18.1758 80.959 18.1758C79.5059 18.1758 78.3398 17.7949 77.4609 17.0332C76.582 16.2656 76.0781 15.2021 75.9492 13.8428H78.1641Z" fill="black"/>
<path d="M98.4141 18H96.1992V12.3135H90.4775V18H88.2539V5.20312H90.4775V10.5293H96.1992V5.20312H98.4141V18Z" fill="black"/>
<path d="M108.53 12.2871H103.274V16.2246H109.418V18H101.051V5.20312H109.356V6.99609H103.274V10.5293H108.53V12.2871Z" fill="black"/>
<path d="M113.452 13.2451V18H111.229V5.20312H116.124C117.554 5.20312 118.688 5.5752 119.525 6.31934C120.369 7.06348 120.791 8.04785 120.791 9.27246C120.791 10.5264 120.378 11.502 119.552 12.1992C118.731 12.8965 117.58 13.2451 116.098 13.2451H113.452ZM113.452 11.4609H116.124C116.915 11.4609 117.519 11.2764 117.935 10.9072C118.351 10.5322 118.559 9.99316 118.559 9.29004C118.559 8.59863 118.348 8.04785 117.926 7.6377C117.504 7.22168 116.924 7.00781 116.186 6.99609H113.452V11.4609Z" fill="black"/>
<path d="M130.925 6.99609H125.019V18H122.804V5.20312H130.925V6.99609Z" fill="black"/>
<path d="M142.395 11.9355C142.395 13.1895 142.178 14.291 141.744 15.2402C141.311 16.1836 140.689 16.9102 139.881 17.4199C139.078 17.9238 138.152 18.1758 137.104 18.1758C136.066 18.1758 135.141 17.9238 134.326 17.4199C133.518 16.9102 132.891 16.1865 132.445 15.249C132.006 14.3115 131.783 13.2305 131.777 12.0059V11.2852C131.777 10.0371 131.997 8.93555 132.437 7.98047C132.882 7.02539 133.506 6.2959 134.309 5.79199C135.117 5.28223 136.043 5.02734 137.086 5.02734C138.129 5.02734 139.052 5.2793 139.854 5.7832C140.663 6.28125 141.287 7.00195 141.727 7.94531C142.166 8.88281 142.389 9.97559 142.395 11.2236V11.9355ZM140.171 11.2676C140.171 9.84961 139.901 8.7627 139.362 8.00684C138.829 7.25098 138.07 6.87305 137.086 6.87305C136.125 6.87305 135.372 7.25098 134.827 8.00684C134.288 8.75684 134.013 9.82031 134.001 11.1973V11.9355C134.001 13.3418 134.273 14.4287 134.818 15.1963C135.369 15.9639 136.131 16.3477 137.104 16.3477C138.088 16.3477 138.844 15.9727 139.371 15.2227C139.904 14.4727 140.171 13.377 140.171 11.9355V11.2676Z" fill="black"/>
</svg>
